<mxfile host="Electron" agent="Mozilla/5.0 (Windows NT 10.0; Win64; x64) AppleWebKit/537.36 (KHTML, like Gecko) draw.io/24.7.8 Chrome/128.0.6613.36 Electron/32.0.1 Safari/537.36" version="24.7.8">
  <diagram name="Page-1" id="_BkmSpTtJWwVtrldEnJq">
    <mxGraphModel dx="1036" dy="614" grid="1" gridSize="10" guides="1" tooltips="1" connect="1" arrows="1" fold="1" page="1" pageScale="1" pageWidth="850" pageHeight="1100" math="0" shadow="0">
      <root>
        <mxCell id="0" />
        <mxCell id="1" parent="0" />
        <mxCell id="Qfyxp2yCI0_wvmrCsZCj-5" style="edgeStyle=orthogonalEdgeStyle;rounded=0;orthogonalLoop=1;jettySize=auto;html=1;exitX=0.5;exitY=1;exitDx=0;exitDy=0;" edge="1" parent="1" source="Qfyxp2yCI0_wvmrCsZCj-1" target="Qfyxp2yCI0_wvmrCsZCj-3">
          <mxGeometry relative="1" as="geometry" />
        </mxCell>
        <mxCell id="Qfyxp2yCI0_wvmrCsZCj-1" value="scl_server.c" style="rounded=0;whiteSpace=wrap;html=1;" vertex="1" parent="1">
          <mxGeometry x="400" y="270" width="130" height="20" as="geometry" />
        </mxCell>
        <mxCell id="Qfyxp2yCI0_wvmrCsZCj-6" style="edgeStyle=orthogonalEdgeStyle;rounded=0;orthogonalLoop=1;jettySize=auto;html=1;exitX=0.5;exitY=1;exitDx=0;exitDy=0;" edge="1" parent="1" source="Qfyxp2yCI0_wvmrCsZCj-3" target="Qfyxp2yCI0_wvmrCsZCj-4">
          <mxGeometry relative="1" as="geometry" />
        </mxCell>
        <mxCell id="Qfyxp2yCI0_wvmrCsZCj-3" value="all_obj_create()" style="rounded=0;whiteSpace=wrap;html=1;" vertex="1" parent="1">
          <mxGeometry x="450" y="310" width="130" height="20" as="geometry" />
        </mxCell>
        <mxCell id="Qfyxp2yCI0_wvmrCsZCj-4" value="startup_cfg_read()" style="rounded=0;whiteSpace=wrap;html=1;" vertex="1" parent="1">
          <mxGeometry x="490" y="350" width="130" height="20" as="geometry" />
        </mxCell>
        <mxCell id="Qfyxp2yCI0_wvmrCsZCj-11" style="edgeStyle=orthogonalEdgeStyle;rounded=0;orthogonalLoop=1;jettySize=auto;html=1;exitX=0.5;exitY=1;exitDx=0;exitDy=0;entryX=0.25;entryY=0;entryDx=0;entryDy=0;" edge="1" parent="1" source="Qfyxp2yCI0_wvmrCsZCj-7" target="Qfyxp2yCI0_wvmrCsZCj-8">
          <mxGeometry relative="1" as="geometry" />
        </mxCell>
        <mxCell id="Qfyxp2yCI0_wvmrCsZCj-7" value="sclparse&lt;span style=&quot;background-color: initial;&quot;&gt;.c&lt;/span&gt;" style="rounded=0;whiteSpace=wrap;html=1;" vertex="1" parent="1">
          <mxGeometry x="250" y="460" width="130" height="20" as="geometry" />
        </mxCell>
        <mxCell id="Qfyxp2yCI0_wvmrCsZCj-13" style="edgeStyle=orthogonalEdgeStyle;rounded=0;orthogonalLoop=1;jettySize=auto;html=1;exitX=0.5;exitY=1;exitDx=0;exitDy=0;entryX=0.25;entryY=0;entryDx=0;entryDy=0;" edge="1" parent="1" source="Qfyxp2yCI0_wvmrCsZCj-8" target="Qfyxp2yCI0_wvmrCsZCj-12">
          <mxGeometry relative="1" as="geometry" />
        </mxCell>
        <mxCell id="Qfyxp2yCI0_wvmrCsZCj-8" value="&lt;div style=&quot;color: rgb(204, 204, 204); background-color: rgb(31, 31, 31); font-family: Consolas, &amp;quot;Courier New&amp;quot;, monospace; font-size: 14px; line-height: 19px; white-space: pre;&quot;&gt;&lt;div&gt;&lt;span style=&quot;color: #dcdcaa;&quot;&gt;scl_parse_cid&lt;/span&gt; (&lt;span style=&quot;color: #569cd6;&quot;&gt;ST_CHAR&lt;/span&gt; &lt;span style=&quot;color: #d4d4d4;&quot;&gt;*&lt;/span&gt;&lt;span style=&quot;color: #9cdcfe;&quot;&gt;xmlFileName&lt;/span&gt;,&lt;/div&gt;&lt;div&gt;&amp;nbsp; &amp;nbsp; &amp;nbsp; &amp;nbsp; &amp;nbsp; &amp;nbsp; &amp;nbsp; &amp;nbsp; &amp;nbsp; &amp;nbsp; &amp;nbsp; &lt;span style=&quot;color: #569cd6;&quot;&gt;ST_CHAR&lt;/span&gt; &lt;span style=&quot;color: #d4d4d4;&quot;&gt;*&lt;/span&gt;&lt;span style=&quot;color: #9cdcfe;&quot;&gt;iedName&lt;/span&gt;,&lt;/div&gt;&lt;div&gt;&amp;nbsp; &amp;nbsp; &amp;nbsp; &amp;nbsp; &amp;nbsp; &amp;nbsp; &amp;nbsp; &amp;nbsp; &amp;nbsp; &amp;nbsp; &amp;nbsp; &lt;span style=&quot;color: #569cd6;&quot;&gt;ST_CHAR&lt;/span&gt; &lt;span style=&quot;color: #d4d4d4;&quot;&gt;*&lt;/span&gt;&lt;span style=&quot;color: #9cdcfe;&quot;&gt;accessPointName&lt;/span&gt;,&lt;/div&gt;&lt;/div&gt;" style="rounded=0;whiteSpace=wrap;html=1;" vertex="1" parent="1">
          <mxGeometry x="300" y="500" width="370" height="70" as="geometry" />
        </mxCell>
        <mxCell id="Qfyxp2yCI0_wvmrCsZCj-12" value="&lt;div style=&quot;color: rgb(204, 204, 204); background-color: rgb(31, 31, 31); font-family: Consolas, &amp;quot;Courier New&amp;quot;, monospace; font-size: 14px; line-height: 19px; white-space: pre;&quot;&gt;&lt;div&gt;&lt;span style=&quot;color: #dcdcaa;&quot;&gt;sx_parse_file&lt;/span&gt; (&lt;span style=&quot;color: #9cdcfe;&quot;&gt;xmlFileName&lt;/span&gt;,&lt;/div&gt;&lt;div&gt;&amp;nbsp; &amp;nbsp; &amp;nbsp; &amp;nbsp; &amp;nbsp; &amp;nbsp; &amp;nbsp; &amp;nbsp; &amp;nbsp; &amp;nbsp; &amp;nbsp; &amp;nbsp;&lt;span style=&quot;color: #569cd6;&quot;&gt;sizeof&lt;/span&gt; (&lt;span style=&quot;color: #9cdcfe;&quot;&gt;sclStartElements&lt;/span&gt;)&lt;/div&gt;&lt;/div&gt;" style="rounded=0;whiteSpace=wrap;html=1;" vertex="1" parent="1">
          <mxGeometry x="425" y="590" width="380" height="50" as="geometry" />
        </mxCell>
        <mxCell id="Qfyxp2yCI0_wvmrCsZCj-14" value="scl_srvr&lt;span style=&quot;background-color: initial;&quot;&gt;.c&lt;/span&gt;" style="rounded=0;whiteSpace=wrap;html=1;" vertex="1" parent="1">
          <mxGeometry x="90" y="130" width="130" height="20" as="geometry" />
        </mxCell>
      </root>
    </mxGraphModel>
  </diagram>
</mxfile>
